<?xml version="1.0" encoding="utf-8"?>
<?xml-stylesheet type="text/xsl" href="rss1.xsl"?>
<rss version="2.0" xmlns:atom="http://www.w3.org/2005/Atom" xmlns:content="http://purl.org/rss/1.0/modules/content/" xmlns:dc="http://purl.org/dc/elements/1.1/" xmlns:media="http://search.yahoo.com/mrss/">
<channel>
 <title>Getty</title>
 <link>http://www.gettyimg.com/</link>
 <atom:link href="http://www.gettyimg.com/" rel="self" type="application/rss+xml" />

 
                <item>
                <title><![CDATA[【HD Live Performances】WEB-DL - Sam Smith Live at V Festival 2015 1080p AMZN WEB-DL DDP2.0 H.264-SiGLA]]></title>
                <link><![CDATA[https://sharemania.us/threads/sam-smith-live-at-v-festival-2015-1080p-amzn-web-dl-ddp2-0-h-264-sigla.243465/]]></link>
                <description><![CDATA[<article>
<blockquote class="messageText SelectQuoteContainer ugc baseHtml">
<div style="text-align: center"><img src="https://i.ibb.co/xHFKqrn/Sam-Smith-Live-at-V-Festival-2015-2015-1080p-AMZN-WEB-DL-DDP2-0-H-264-Si-GLA-mkv-thumbs.jpg" class="bbCodeImage LbImage" alt="[​IMG]" data-url="https://i.ibb.co/xHFKqrn/Sam-Smith-Live-at-V-Festival-2015-2015-1080p-AMZN-WEB-DL-DDP2-0-H-264-Si-GLA-mkv-thumbs.jpg" style=""><br>
<br>
<span data-s9e-mediaembed="youtube" style="display:inline-block;width:100%;max-width:640px"><span style="display:block;overflow:hidden;position:relative;padding-bottom:56.25%"><iframe allowfullscreen="" loading="lazy" scrolling="no" style="background:url(https://i.ytimg.com/vi/M7yKf_Thdmw/hqdefault.jpg) 50% 50% / cover;border:0;height:100%;left:0;position:absolute;width:100%" src="https://www.youtube.com/embed/M7yKf_Thdmw"></iframe></span></span>​</div><br>
<div style="text-align: left">
<div class="bbCodeBlock bbCodeCode">
<div class="type">Code:</div>
<pre>General
Unique ID                                : 197028569181637108144325354801116051068 (0x943A527706412C7C7C3AB969BB3D767C)
Complete name                            : Sam.Smith.Live.at.V.Festival.2015.2015.1080p.AMZN.WEB-DL.DDP2.0.H.264-SiGLA.mkv
Format                                   : Matroska
Format version                           : Version 4
File size                                : 1.51 GiB
Duration                                 : 21 min 44 s
Overall bit rate mode                    : Constant
Overall bit rate                         : 9 937 kb/s
Movie name                               : Sam.Smith.-.Live.at.V.Festival.2015.2015.1080p.AMZN.WEB-DL.DDP2.0.H.264-SiGLA
Writing application                      : mkvmerge v62.0.0 ('SiGLA') 64-bit
Writing library                          : libebml v1.4.2 + libmatroska v1.6.4

Video
ID                                       : 1
Format                                   : AVC
Format/Info                              : Advanced Video Codec
Format profile                           : High@L4
Format settings                          : CABAC / 4 Ref Frames
Format settings, CABAC                   : Yes
Format settings, Reference frames        : 4 frames
Codec ID                                 : V_MPEG4/ISO/AVC
Duration                                 : 21 min 44 s
Bit rate mode                            : Constant
Bit rate                                 : 10 000 kb/s
Width                                    : 1 920 pixels
Height                                   : 1 080 pixels
Display aspect ratio                     : 16:9
Frame rate mode                          : Constant
Frame rate                               : 25.000 FPS
Color space                              : YUV
Chroma subsampling                       : 4:2:0
Bit depth                                : 8 bits
Scan type                                : Progressive
Bits/(Pixel*Frame)                       : 0.193
Stream size                              : 1.47 GiB (98%)
Default                                  : Yes
Forced                                   : No
Color range                              : Limited
Color primaries                          : BT.709
Transfer characteristics                 : BT.709
Matrix coefficients                      : BT.709

Audio
ID                                       : 2
Format                                   : E-AC-3
Format/Info                              : Enhanced AC-3
Commercial name                          : Dolby Digital Plus
Codec ID                                 : A_EAC3
Duration                                 : 21 min 44 s
Bit rate mode                            : Constant
Bit rate                                 : 224 kb/s
Channel(s)                               : 2 channels
Channel layout                           : L R
Sampling rate                            : 48.0 kHz
Frame rate                               : 31.250 FPS (1536 SPF)
Compression mode                         : Lossy
Stream size                              : 34.8 MiB (2%)
Title                                    : English
Language                                 : English
Service kind                             : Complete Main
Default                                  : Yes
Forced                                   : No
</pre>
</div></div><br>
<div class="bbCodeBlock bbCodeVfcHH HiddenContent">
<div class="attribution type">Hidden Content:</div>
<blockquote>You must either reply or click 'Like' to see the hidden information contained here.</blockquote>
</div>
<div class="messageTextEndMarker">&nbsp;</div>
</blockquote>
</article>]]></description>
                <author><![CDATA[-C.A.A]]></author>
                </item>

                
                <item>
                <title><![CDATA[【Albums (lossy)】Dolby Atmos - Lyodra - Lyodra [EAC3-JOC, 16bit/48kHz, 768Kbps]]]></title>
                <link><![CDATA[https://sharemania.us/threads/lyodra-lyodra-eac3-joc-16bit-48khz-768kbps.243462/]]></link>
                <description><![CDATA[<article>
<blockquote class="messageText SelectQuoteContainer ugc baseHtml">
<img src="https://is1-ssl.mzstatic.com/image/thumb/Music125/v4/5f/4f/68/5f4f6824-86e0-0efa-a2c9-9fbd104b0470/21UMGIM62551.rgb.jpg/1200x1200bb.jpg" class="bbCodeImage LbImage" alt="[​IMG]" data-url="https://is1-ssl.mzstatic.com/image/thumb/Music125/v4/5f/4f/68/5f4f6824-86e0-0efa-a2c9-9fbd104b0470/21UMGIM62551.rgb.jpg/1200x1200bb.jpg" style=""><br>
<br>
<span style="font-size: 18px"><b>Artist: Lyodra<br>
Album: Lyodra/B]<br>
<b>Country: Indonesia</b></b></span><b><br>
.m4a [EAC3-JOC, 16bit/48kHz, 768Kbps]<br>
<br>
track:<br>
1. Tentang Kamu<br>
2. Gemintang Hatiku<br>
4. Oe..Oe..<br>
5. Kalau Bosan<br>
6. Dibanding Dia<br>
8. Pesan Terakhir<br>
<br>
Track 3 and 7 Not available in Atmos<br>
<br>
Link<br>
<div class="bbCodeBlock bbCodeVfcHH HiddenContent">
<div class="attribution type">Hidden Content:</div>
<blockquote>You must either reply or click 'Like' to see the hidden information contained here.</blockquote>
</div></b>
<div class="messageTextEndMarker">&nbsp;</div>
</blockquote>
</article>]]></description>
                <author><![CDATA[andammm777]]></author>
                </item>

                
                <item>
                <title><![CDATA[【HD Live Performances】WEB-DL - Sam Smith Live at V Festival 2014 1080p AMZN WEB-DL DDP2.0 H.264-SiGLA]]></title>
                <link><![CDATA[https://sharemania.us/threads/sam-smith-live-at-v-festival-2014-1080p-amzn-web-dl-ddp2-0-h-264-sigla.243463/]]></link>
                <description><![CDATA[<article>
<blockquote class="messageText SelectQuoteContainer ugc baseHtml">
<div style="text-align: center"><img src="https://i.ibb.co/M6j3dRf/Sam-Smith-Live-at-V-Festival-2014-2014-1080p-AMZN-WEB-DL-DDP2-0-H-264-Si-GLA-mkv-thumbs.jpg" class="bbCodeImage LbImage" alt="[​IMG]" data-url="https://i.ibb.co/M6j3dRf/Sam-Smith-Live-at-V-Festival-2014-2014-1080p-AMZN-WEB-DL-DDP2-0-H-264-Si-GLA-mkv-thumbs.jpg" style=""><br>
<br>
<span data-s9e-mediaembed="youtube" style="display:inline-block;width:100%;max-width:640px"><span style="display:block;overflow:hidden;position:relative;padding-bottom:56.25%"><iframe allowfullscreen="" loading="lazy" scrolling="no" style="background:url(https://i.ytimg.com/vi/qRILps1eEHk/hqdefault.jpg) 50% 50% / cover;border:0;height:100%;left:0;position:absolute;width:100%" src="https://www.youtube.com/embed/qRILps1eEHk"></iframe></span></span>​</div><br>
<div style="text-align: left">
<div class="bbCodeBlock bbCodeCode">
<div class="type">Code:</div>
<pre>General
Unique ID                                : 227572391346320981876793808717971942277 (0xAB34D92A40971FCAD0C6947C33A36B85)
Complete name                            : Sam.Smith.Live.at.V.Festival.2014.2014.1080p.AMZN.WEB-DL.DDP2.0.H.264-SiGLA.mkv
Format                                   : Matroska
Format version                           : Version 4
File size                                : 2.95 GiB
Duration                                 : 41 min 51 s
Overall bit rate mode                    : Constant
Overall bit rate                         : 10.1 Mb/s
Movie name                               : Sam.Smith.-.Live.at.V.Festival.2014.2014.1080p.AMZN.WEB-DL.DDP2.0.H.264-SiGLA
Writing application                      : mkvmerge v62.0.0 ('SiGLA') 64-bit
Writing library                          : libebml v1.4.2 + libmatroska v1.6.4

Video
ID                                       : 1
Format                                   : AVC
Format/Info                              : Advanced Video Codec
Format profile                           : High@L4
Format settings                          : CABAC / 4 Ref Frames
Format settings, CABAC                   : Yes
Format settings, Reference frames        : 4 frames
Codec ID                                 : V_MPEG4/ISO/AVC
Duration                                 : 41 min 51 s
Bit rate mode                            : Constant
Bit rate                                 : 10 000 kb/s
Width                                    : 1 920 pixels
Height                                   : 1 080 pixels
Display aspect ratio                     : 16:9
Frame rate mode                          : Constant
Frame rate                               : 25.000 FPS
Color space                              : YUV
Chroma subsampling                       : 4:2:0
Bit depth                                : 8 bits
Scan type                                : Progressive
Bits/(Pixel*Frame)                       : 0.193
Stream size                              : 2.88 GiB (98%)
Default                                  : Yes
Forced                                   : No
Color range                              : Limited
Color primaries                          : BT.709
Transfer characteristics                 : BT.709
Matrix coefficients                      : BT.709

Audio
ID                                       : 2
Format                                   : E-AC-3
Format/Info                              : Enhanced AC-3
Commercial name                          : Dolby Digital Plus
Codec ID                                 : A_EAC3
Duration                                 : 41 min 51 s
Bit rate mode                            : Constant
Bit rate                                 : 224 kb/s
Channel(s)                               : 2 channels
Channel layout                           : L R
Sampling rate                            : 48.0 kHz
Frame rate                               : 31.250 FPS (1536 SPF)
Compression mode                         : Lossy
Stream size                              : 67.1 MiB (2%)
Title                                    : English
Language                                 : English
Service kind                             : Complete Main
Default                                  : Yes
Forced                                   : No
</pre>
</div></div><br>
<div class="bbCodeBlock bbCodeVfcHH HiddenContent">
<div class="attribution type">Hidden Content:</div>
<blockquote>You must either reply or click 'Like' to see the hidden information contained here.</blockquote>
</div>
<div class="messageTextEndMarker">&nbsp;</div>
</blockquote>
</article>]]></description>
                <author><![CDATA[-C.A.A]]></author>
                </item>

                
                <item>
                <title><![CDATA[【Apple Music】WEB-RiP - Linkin Park - Waiting for the End [Apple Music WEB-DL 1080p HD]]]></title>
                <link><![CDATA[https://sharemania.us/threads/linkin-park-waiting-for-the-end-apple-music-web-dl-1080p-hd.243464/]]></link>
                <description><![CDATA[<article>
<blockquote class="messageText SelectQuoteContainer ugc baseHtml">
<span style="font-size: 22px"><b>Linkin Park - Waiting for the End [Apple Music WEB-DL 1080p HD]</b></span><br>
<br>
<img src="https://imgur.com/yOaqRKY.jpg" class="bbCodeImage LbImage" alt="[​IMG]" data-url="https://imgur.com/yOaqRKY.jpg" style=""><br>
<br>
<div class="bbCodeBlock bbCodeCode">
<div class="type">Code:</div>
<pre>General
Format                         : MPEG-4
Codec ID                       : M4V  (isom/iso4/M4V /mp42)
File size                      : 280 MiB
Duration                       : 3 min 54 s
Overall bit rate mode          : Variable
Overall bit rate               : 10.0 Mb/s
Movie name                     : Waiting for the End
Album                          : A Thousand Suns (Deluxe Edition)
Album/Performer                : LINKIN PARK
Part/Position                  : 1
Part/Total                     : 1
Track name/Position            : 18
Track name/Total               : 18
Performer                      : LINKIN PARK
Genre                          : Alternative
ContentType                    : Music Video
Recorded date                  : UTC 2010-09-10 07:00:00
Encoded date                   : UTC 2024-03-05 13:39:46
Tagged date                    : UTC 2024-03-05 13:39:46
Copyright                      : ℗ 2010 Warner Records Inc.
Cover                          : Yes
Rating                         : None
GenreID                        : 1620
AlbumTitleID                   : 148662
PlayListID                     : 590434066
AppleStoreCatalogID            : 590434084

Video
ID                             : 2
Format                         : AVC
Format/Info                    : Advanced Video Codec
Format profile                 : High@L4
Format settings                : CABAC / 4 Ref Frames
Format settings, CABAC         : Yes
Format settings, Reference fra : 4 frames
Codec ID                       : avc1
Codec ID/Info                  : Advanced Video Coding
Duration                       : 3 min 54 s
Bit rate                       : 9 756 kb/s
Maximum bit rate               : 18.9 Mb/s
Width                          : 1 920 pixels
Height                         : 1 080 pixels
Display aspect ratio           : 16:9
Frame rate mode                : Constant
Frame rate                     : 23.976 (23976/1000) FPS
Color space                    : YUV
Chroma subsampling             : 4:2:0
Bit depth                      : 8 bits
Scan type                      : Progressive
Bits/(Pixel*Frame)             : 0.196
Stream size                    : 272 MiB (97%)
Title                          : Core Media Video
Encoded date                   : UTC 2024-03-05 13:39:56
Tagged date                    : UTC 2024-04-25 06:42:35
Color range                    : Limited
Color primaries                : BT.709
Transfer characteristics       : BT.709
Matrix coefficients            : BT.709
Codec configuration box        : avcC

Audio
ID                             : 1
Format                         : AAC LC
Format/Info                    : Advanced Audio Codec Low Complexity
Codec ID                       : mp4a-40-2
Duration                       : 3 min 54 s
Duration_LastFrame             : -6 ms
Bit rate mode                  : Variable
Bit rate                       : 265 kb/s
Maximum bit rate               : 344 kb/s
Channel(s)                     : 2 channels
Channel layout                 : L R
Sampling rate                  : 48.0 kHz
Frame rate                     : 46.875 FPS (1024 SPF)
Compression mode               : Lossy
Stream size                    : 7.44 MiB (3%)
Title                          : Core Media Audio
Encoded date                   : UTC 2024-03-05 13:39:46
Tagged date                    : UTC 2024-04-25 06:42:35
</pre>
</div>
<div class="bbCodeBlock bbCodeVfcHH HiddenContent">
<div class="attribution type">Hidden Content:</div>
<blockquote>You must reply before you can see the hidden data contained here.</blockquote>
</div>
<div class="messageTextEndMarker">&nbsp;</div>
</blockquote>
</article>]]></description>
                <author><![CDATA[Ron001]]></author>
                </item>

                
                <item>
                <title><![CDATA[【Requests】[REQ AUD] - Various – Z100's Jingle Ball '99 All Access Live! lossless]]></title>
                <link><![CDATA[https://sharemania.us/threads/various-%E2%80%93-z100s-jingle-ball-99-all-access-live-lossless.243461/]]></link>
                <description><![CDATA[<article>
<blockquote class="messageText SelectQuoteContainer ugc baseHtml">
Hi<br>
<br>
Any format in lossless would be appreciated.<br>
<br>
Thank you<br>
<br>
<img src="https://i.discogs.com/wKuOtmYdyVHlU-Ri2_WGgQYCHd-ZME7fHrZN2c7ftx4/rs:fit/g:sm/q:90/h:300/w:300/czM6Ly9kaXNjb2dz/LWRhdGFiYXNlLWlt/YWdlcy9SLTE4ODE0/NDQtMTQxMjE4NDYz/Ni0zNDcwLmpwZWc.jpeg" class="bbCodeImage LbImage" alt="[​IMG]" data-url="https://i.discogs.com/wKuOtmYdyVHlU-Ri2_WGgQYCHd-ZME7fHrZN2c7ftx4/rs:fit/g:sm/q:90/h:300/w:300/czM6Ly9kaXNjb2dz/LWRhdGFiYXNlLWlt/YWdlcy9SLTE4ODE0/NDQtMTQxMjE4NDYz/Ni0zNDcwLmpwZWc.jpeg" style="">
<div class="messageTextEndMarker">&nbsp;</div>
</blockquote>
</article>]]></description>
                <author><![CDATA[ayyak]]></author>
                </item>

                </channel></rss>